<svg width="44" height="38" viewBox="57 5 44 38" fill="none" xmlns="http://www.w3.org/2000/svg">
  <mask id="button-support-icon-mask" style="mask-type: alpha" maskUnits="userSpaceOnUse" x="57" y="5" width="44" height="38">
    <rect x="57" y="5" width="44" height="38" fill="#D9D9D9" />
  </mask>
  <g mask="url(#button-support-icon-mask)">
    <g opacity="0.4">
      <rect
        x="79"
        y="0.707107"
        width="32.9411"
        height="32.9411"
        rx="4.5"
        transform="rotate(45 79 0.707107)"
        stroke="#D6BFA0"
      />
      <g filter="url(#button-support-icon-filter)">
        <rect
          x="79"
          y="6"
          width="25.4558"
          height="25.4558"
          rx="3"
          transform="rotate(45 79 6)"
          fill="#D6BFA0"
          fill-opacity="0.5"
        />
      </g>
      <rect
        x="79"
        y="6"
        width="25.4558"
        height="25.4558"
        rx="3"
        transform="rotate(45 79 6)"
        stroke="#D6BFA0"
        stroke-width="2"
      />
    </g>
  </g>
  <path
    d="M87.9996 23.9998C87.9996 28.9704 83.9704 33.0001 78.9998 33.0001C74.0291 33.0001 70 28.9704 70 23.9998C70 19.0296 74.0291 15 78.9998 15C83.9704 15 87.9996 19.0296 87.9996 23.9998Z"
    fill="#F3DCBA"
  />
  <path
    d="M87.9998 23.9998C87.9998 28.9704 83.9707 33.0001 79 33.0001V15C83.9707 15 87.9998 19.0296 87.9998 23.9998Z"
    fill="#E5C79B"
  />
  <path
    d="M78.9996 17.2768C75.2925 17.2768 72.2764 20.293 72.2764 24.0001C72.2764 27.7077 75.2925 30.7234 78.9996 30.7234C82.7068 30.7234 85.7229 27.7077 85.7229 24.0001C85.7229 20.293 82.7068 17.2768 78.9996 17.2768ZM78.9996 29.3313C76.06 29.3313 73.6684 26.9397 73.6684 24.0001C73.6684 21.0605 76.06 18.6689 78.9996 18.6689C81.9393 18.6689 84.3309 21.0605 84.3309 24.0001C84.3309 26.9397 81.9393 29.3313 78.9996 29.3313Z"
    fill="white"
  />
  <path
    d="M85.7233 24.0001C85.7233 27.7077 82.7071 30.7234 79 30.7234V29.3313C81.9396 29.3313 84.3312 26.9397 84.3312 24.0001C84.3312 21.0605 81.9396 18.6689 79 18.6689V17.2768C82.7071 17.2768 85.7233 20.293 85.7233 24.0001Z"
    fill="#F7DFBC"
  />
  <defs>
    <filter
      id="button-support-icon-filter"
      x="61.2427"
      y="4.24264"
      width="35.5146"
      height="37.5147"
      filterUnits="userSpaceOnUse"
      color-interpolation-filters="sRGB"
    >
      <feFlood flood-opacity="0" result="BackgroundImageFix" />
      <feBlend mode="normal" in="SourceGraphic" in2="BackgroundImageFix" result="shape" />
      <feColorMatrix
        in="SourceAlpha"
        type="matrix"
        values="0 0 0 0 0 0 0 0 0 0 0 0 0 0 0 0 0 0 127 0"
        result="hardAlpha"
      />
      <feOffset dy="-2" />
      <feGaussianBlur stdDeviation="3" />
      <feComposite in2="hardAlpha" operator="arithmetic" k2="-1" k3="1" />
      <feColorMatrix type="matrix" values="0 0 0 0 0 0 0 0 0 0 0 0 0 0 0 0 0 0 0.25 0" />
      <feBlend mode="normal" in2="shape" result="effect1_innerShadow_2821_998" />
    </filter>
  </defs>
</svg>
