<svg width="182" height="40" viewBox="0 0 182 40" fill="none" xmlns="http://www.w3.org/2000/svg">
<rect width="182" height="40" rx="5" fill="#4267B2"/>
<path d="M5 0.5H39.5V39.5H5C2.51472 39.5 0.5 37.4853 0.5 35V5C0.5 2.51472 2.51472 0.5 5 0.5Z" fill="#F9F9F9" stroke="#4267B2"/>
<g clip-path="url(#clip0_1055_4456)">
<path d="M21.789 31.9969V21.0519H25.3269L25.8566 16.7865H21.789V14.0631C21.789 12.8282 22.1192 11.9865 23.8248 11.9865L26 11.9855V8.17052C25.6236 8.11872 24.3325 8.00262 22.8304 8.00262C19.6942 8.00262 17.5471 9.99034 17.5471 13.6409V16.7866H14V21.052H17.547V31.997L21.789 31.9969Z" fill="#4267B2"/>
</g>
<path d="M76.2101 25V13.72H83.3781V15.064H77.8741V18.664H83.0421V20.008H77.8741V25H76.2101ZM87.557 25.144C87.013 25.144 86.5277 25.0373 86.101 24.824C85.6743 24.6107 85.333 24.3227 85.077 23.96C84.8317 23.5973 84.709 23.1867 84.709 22.728C84.709 22.152 84.853 21.6987 85.141 21.368C85.4397 21.0373 85.925 20.7973 86.597 20.648C87.2797 20.4987 88.197 20.424 89.349 20.424H89.893V20.008C89.893 19.4 89.765 18.9627 89.509 18.696C89.253 18.4293 88.8317 18.296 88.245 18.296C87.797 18.296 87.349 18.3653 86.901 18.504C86.453 18.632 85.9943 18.84 85.525 19.128L85.029 17.992C85.4343 17.704 85.941 17.4747 86.549 17.304C87.157 17.1333 87.7383 17.048 88.293 17.048C89.3597 17.048 90.149 17.304 90.661 17.816C91.173 18.3173 91.429 19.1067 91.429 20.184V25H89.909V23.704C89.717 24.152 89.4183 24.504 89.013 24.76C88.6077 25.016 88.1223 25.144 87.557 25.144ZM87.877 23.992C88.453 23.992 88.933 23.7893 89.317 23.384C89.701 22.9787 89.893 22.4667 89.893 21.848V21.416H89.365C88.5863 21.416 87.973 21.4533 87.525 21.528C87.0877 21.6027 86.773 21.7307 86.581 21.912C86.3997 22.0827 86.309 22.3227 86.309 22.632C86.309 23.0373 86.4477 23.368 86.725 23.624C87.0023 23.8693 87.3863 23.992 87.877 23.992ZM97.5747 25.144C96.7747 25.144 96.0814 24.9787 95.4947 24.648C94.9187 24.3067 94.4707 23.832 94.1507 23.224C93.8307 22.6053 93.6707 21.88 93.6707 21.048C93.6707 19.8107 94.0227 18.8347 94.7267 18.12C95.4307 17.4053 96.3801 17.048 97.5747 17.048C98.0654 17.048 98.5507 17.1333 99.0307 17.304C99.5107 17.4747 99.9054 17.7093 100.215 18.008L99.7027 19.144C99.4041 18.8667 99.0734 18.664 98.7107 18.536C98.3587 18.3973 98.0227 18.328 97.7027 18.328C96.9454 18.328 96.3587 18.568 95.9427 19.048C95.5374 19.5173 95.3347 20.1893 95.3347 21.064C95.3347 21.9387 95.5374 22.6267 95.9427 23.128C96.3587 23.6187 96.9454 23.864 97.7027 23.864C98.0227 23.864 98.3587 23.8 98.7107 23.672C99.0734 23.5333 99.4041 23.3253 99.7027 23.048L100.215 24.2C99.9054 24.488 99.5054 24.7173 99.0147 24.888C98.5347 25.0587 98.0547 25.144 97.5747 25.144ZM105.591 25.144C104.311 25.144 103.303 24.7867 102.567 24.072C101.831 23.3467 101.463 22.36 101.463 21.112C101.463 20.312 101.623 19.608 101.943 19C102.274 18.3813 102.727 17.9013 103.303 17.56C103.879 17.2187 104.541 17.048 105.287 17.048C106.365 17.048 107.213 17.3947 107.831 18.088C108.45 18.7707 108.759 19.7147 108.759 20.92V21.464H103.031C103.149 23.0853 104.007 23.896 105.607 23.896C106.055 23.896 106.493 23.8267 106.919 23.688C107.357 23.5493 107.767 23.32 108.151 23L108.631 24.12C108.279 24.44 107.826 24.6907 107.271 24.872C106.717 25.0533 106.157 25.144 105.591 25.144ZM105.351 18.184C104.679 18.184 104.146 18.392 103.751 18.808C103.357 19.224 103.117 19.7787 103.031 20.472H107.399C107.367 19.7467 107.175 19.1867 106.823 18.792C106.471 18.3867 105.981 18.184 105.351 18.184ZM115.193 25.144C114.596 25.144 114.068 25.0107 113.609 24.744C113.15 24.4773 112.809 24.12 112.585 23.672V25H111.001V13.72H112.617V18.456C112.852 18.0293 113.193 17.688 113.641 17.432C114.1 17.176 114.617 17.048 115.193 17.048C115.886 17.048 116.489 17.2133 117.001 17.544C117.524 17.8747 117.924 18.344 118.201 18.952C118.489 19.5493 118.633 20.264 118.633 21.096C118.633 21.928 118.489 22.648 118.201 23.256C117.924 23.864 117.524 24.3333 117.001 24.664C116.489 24.984 115.886 25.144 115.193 25.144ZM114.793 23.896C115.465 23.896 115.998 23.656 116.393 23.176C116.798 22.696 117.001 22.0027 117.001 21.096C117.001 20.1893 116.798 19.5013 116.393 19.032C115.998 18.552 115.465 18.312 114.793 18.312C114.121 18.312 113.582 18.552 113.177 19.032C112.782 19.5013 112.585 20.1893 112.585 21.096C112.585 22.0027 112.782 22.696 113.177 23.176C113.582 23.656 114.121 23.896 114.793 23.896ZM124.326 25.144C123.537 25.144 122.854 24.9787 122.278 24.648C121.702 24.3173 121.254 23.8533 120.934 23.256C120.625 22.648 120.47 21.928 120.47 21.096C120.47 20.264 120.625 19.5493 120.934 18.952C121.254 18.344 121.702 17.8747 122.278 17.544C122.854 17.2133 123.537 17.048 124.326 17.048C125.094 17.048 125.766 17.2133 126.342 17.544C126.918 17.8747 127.366 18.344 127.686 18.952C128.006 19.5493 128.166 20.264 128.166 21.096C128.166 21.928 128.006 22.648 127.686 23.256C127.366 23.8533 126.918 24.3173 126.342 24.648C125.766 24.9787 125.094 25.144 124.326 25.144ZM124.326 23.896C124.987 23.896 125.521 23.656 125.926 23.176C126.331 22.696 126.534 22.0027 126.534 21.096C126.534 20.1893 126.331 19.5013 125.926 19.032C125.521 18.552 124.987 18.312 124.326 18.312C123.654 18.312 123.115 18.552 122.71 19.032C122.305 19.5013 122.102 20.1893 122.102 21.096C122.102 22.0027 122.305 22.696 122.71 23.176C123.115 23.656 123.654 23.896 124.326 23.896ZM133.853 25.144C133.064 25.144 132.381 24.9787 131.805 24.648C131.229 24.3173 130.781 23.8533 130.461 23.256C130.152 22.648 129.997 21.928 129.997 21.096C129.997 20.264 130.152 19.5493 130.461 18.952C130.781 18.344 131.229 17.8747 131.805 17.544C132.381 17.2133 133.064 17.048 133.853 17.048C134.621 17.048 135.293 17.2133 135.869 17.544C136.445 17.8747 136.893 18.344 137.213 18.952C137.533 19.5493 137.693 20.264 137.693 21.096C137.693 21.928 137.533 22.648 137.213 23.256C136.893 23.8533 136.445 24.3173 135.869 24.648C135.293 24.9787 134.621 25.144 133.853 25.144ZM133.853 23.896C134.514 23.896 135.048 23.656 135.453 23.176C135.858 22.696 136.061 22.0027 136.061 21.096C136.061 20.1893 135.858 19.5013 135.453 19.032C135.048 18.552 134.514 18.312 133.853 18.312C133.181 18.312 132.642 18.552 132.237 19.032C131.832 19.5013 131.629 20.1893 131.629 21.096C131.629 22.0027 131.832 22.696 132.237 23.176C132.642 23.656 133.181 23.896 133.853 23.896ZM139.988 25V13.72H141.604V20.6H141.636L145.028 17.192H147.028L143.284 20.952L147.316 25H145.3L141.636 21.432H141.604V25H139.988Z" fill="#F9F9F9"/>
<defs>
<clipPath id="clip0_1055_4456">
<rect width="12" height="24" fill="white" transform="translate(14 8)"/>
</clipPath>
</defs>
</svg>
