<svg width="182" height="40" viewBox="0 0 182 40" fill="none" xmlns="http://www.w3.org/2000/svg">
<rect width="182" height="40" rx="5" fill="#4285F4"/>
<path d="M5 0.5H39.5V39.5H5C2.51472 39.5 0.5 37.4853 0.5 35V5C0.5 2.51472 2.51472 0.5 5 0.5Z" fill="#F9F9F9" stroke="#4285F4"/>
<g clip-path="url(#clip0_1055_4457)">
<path d="M31.7138 20.2245C31.7138 19.2413 31.634 18.5238 31.4614 17.7797H20.2334V22.2176H26.824C26.6911 23.3205 25.9736 24.9815 24.3791 26.0976L24.3567 26.2462L27.9068 28.9964L28.1528 29.0209C30.4116 26.9347 31.7138 23.8653 31.7138 20.2245Z" fill="#4285F4"/>
<path d="M20.234 31.9176C23.4628 31.9176 26.1734 30.8545 28.1533 29.0209L24.3797 26.0976C23.3698 26.8018 22.0145 27.2934 20.234 27.2934C17.0716 27.2934 14.3875 25.2074 13.4307 22.324L13.2905 22.3359L9.59906 25.1927L9.55078 25.3269C11.5173 29.2334 15.5567 31.9176 20.234 31.9176Z" fill="#34A853"/>
<path d="M13.4299 22.324C13.1775 21.5799 13.0314 20.7826 13.0314 19.9588C13.0314 19.1349 13.1775 18.3377 13.4166 17.5936L13.41 17.4351L9.67228 14.5324L9.54999 14.5906C8.73948 16.2117 8.27441 18.0321 8.27441 19.9588C8.27441 21.8855 8.73948 23.7058 9.54999 25.3269L13.4299 22.324Z" fill="#FBBC05"/>
<path d="M20.234 12.624C22.4795 12.624 23.9943 13.594 24.858 14.4046L28.233 11.1093C26.1602 9.1826 23.4628 8 20.234 8C15.5567 8 11.5173 10.6841 9.55078 14.5906L13.4174 17.5936C14.3875 14.7102 17.0716 12.624 20.234 12.624Z" fill="#EB4335"/>
</g>
<path d="M90.0404 25.144C88.8138 25.144 87.7791 24.9147 86.9364 24.456C86.0938 23.9867 85.4538 23.32 85.0164 22.456C84.5898 21.592 84.3764 20.5627 84.3764 19.368C84.3764 18.184 84.5951 17.16 85.0324 16.296C85.4698 15.4213 86.1044 14.7493 86.9364 14.28C87.7684 13.8107 88.7658 13.576 89.9284 13.576C90.7284 13.576 91.4698 13.6933 92.1524 13.928C92.8351 14.1627 93.4058 14.4987 93.8644 14.936L93.2724 16.232C92.7604 15.8053 92.2378 15.5013 91.7044 15.32C91.1711 15.128 90.5791 15.032 89.9284 15.032C88.6804 15.032 87.7311 15.4107 87.0804 16.168C86.4298 16.9147 86.1044 17.9813 86.1044 19.368C86.1044 20.7867 86.4351 21.864 87.0964 22.6C87.7684 23.336 88.7711 23.704 90.1044 23.704C90.9151 23.704 91.7204 23.5707 92.5204 23.304V20.28H89.7684V19.032H93.9124V24.344C93.4324 24.5787 92.8351 24.7707 92.1204 24.92C91.4164 25.0693 90.7231 25.144 90.0404 25.144ZM100.16 25.144C99.3702 25.144 98.6876 24.9787 98.1116 24.648C97.5356 24.3173 97.0876 23.8533 96.7676 23.256C96.4582 22.648 96.3036 21.928 96.3036 21.096C96.3036 20.264 96.4582 19.5493 96.7676 18.952C97.0876 18.344 97.5356 17.8747 98.1116 17.544C98.6876 17.2133 99.3702 17.048 100.16 17.048C100.928 17.048 101.6 17.2133 102.176 17.544C102.752 17.8747 103.2 18.344 103.52 18.952C103.84 19.5493 104 20.264 104 21.096C104 21.928 103.84 22.648 103.52 23.256C103.2 23.8533 102.752 24.3173 102.176 24.648C101.6 24.9787 100.928 25.144 100.16 25.144ZM100.16 23.896C100.821 23.896 101.354 23.656 101.76 23.176C102.165 22.696 102.368 22.0027 102.368 21.096C102.368 20.1893 102.165 19.5013 101.76 19.032C101.354 18.552 100.821 18.312 100.16 18.312C99.4876 18.312 98.9489 18.552 98.5436 19.032C98.1382 19.5013 97.9356 20.1893 97.9356 21.096C97.9356 22.0027 98.1382 22.696 98.5436 23.176C98.9489 23.656 99.4876 23.896 100.16 23.896ZM109.686 25.144C108.897 25.144 108.214 24.9787 107.638 24.648C107.062 24.3173 106.614 23.8533 106.294 23.256C105.985 22.648 105.83 21.928 105.83 21.096C105.83 20.264 105.985 19.5493 106.294 18.952C106.614 18.344 107.062 17.8747 107.638 17.544C108.214 17.2133 108.897 17.048 109.686 17.048C110.454 17.048 111.126 17.2133 111.702 17.544C112.278 17.8747 112.726 18.344 113.046 18.952C113.366 19.5493 113.526 20.264 113.526 21.096C113.526 21.928 113.366 22.648 113.046 23.256C112.726 23.8533 112.278 24.3173 111.702 24.648C111.126 24.9787 110.454 25.144 109.686 25.144ZM109.686 23.896C110.348 23.896 110.881 23.656 111.286 23.176C111.692 22.696 111.894 22.0027 111.894 21.096C111.894 20.1893 111.692 19.5013 111.286 19.032C110.881 18.552 110.348 18.312 109.686 18.312C109.014 18.312 108.476 18.552 108.07 19.032C107.665 19.5013 107.462 20.1893 107.462 21.096C107.462 22.0027 107.665 22.696 108.07 23.176C108.476 23.656 109.014 23.896 109.686 23.896ZM119.357 28.024C118.653 28.024 117.997 27.9387 117.389 27.768C116.781 27.608 116.243 27.352 115.773 27L116.269 25.848C116.739 26.168 117.219 26.4027 117.709 26.552C118.2 26.7013 118.712 26.776 119.245 26.776C120.739 26.776 121.485 26.0293 121.485 24.536V23.304C121.261 23.7733 120.909 24.1413 120.429 24.408C119.96 24.6747 119.432 24.808 118.845 24.808C118.141 24.808 117.528 24.648 117.005 24.328C116.483 23.9973 116.077 23.544 115.789 22.968C115.501 22.3813 115.357 21.6987 115.357 20.92C115.357 20.152 115.501 19.48 115.789 18.904C116.077 18.3173 116.483 17.864 117.005 17.544C117.528 17.2133 118.141 17.048 118.845 17.048C119.443 17.048 119.976 17.1813 120.445 17.448C120.915 17.7147 121.261 18.0827 121.485 18.552V17.192H123.053V24.344C123.053 25.5707 122.739 26.488 122.109 27.096C121.48 27.7147 120.563 28.024 119.357 28.024ZM119.229 23.544C119.912 23.544 120.456 23.3093 120.861 22.84C121.267 22.3707 121.469 21.7307 121.469 20.92C121.469 20.1093 121.267 19.4747 120.861 19.016C120.456 18.5467 119.912 18.312 119.229 18.312C118.547 18.312 118.003 18.5467 117.597 19.016C117.192 19.4747 116.989 20.1093 116.989 20.92C116.989 21.7307 117.192 22.3707 117.597 22.84C118.003 23.3093 118.547 23.544 119.229 23.544ZM128.345 25.144C127.492 25.144 126.852 24.904 126.425 24.424C126.009 23.944 125.801 23.24 125.801 22.312V13.72H127.417V22.216C127.417 23.272 127.849 23.8 128.713 23.8C128.841 23.8 128.959 23.7947 129.065 23.784C129.183 23.7733 129.3 23.752 129.417 23.72L129.385 25.016C129.023 25.1013 128.676 25.144 128.345 25.144ZM134.758 25.144C133.478 25.144 132.47 24.7867 131.734 24.072C130.998 23.3467 130.63 22.36 130.63 21.112C130.63 20.312 130.79 19.608 131.11 19C131.44 18.3813 131.894 17.9013 132.47 17.56C133.046 17.2187 133.707 17.048 134.454 17.048C135.531 17.048 136.379 17.3947 136.998 18.088C137.616 18.7707 137.926 19.7147 137.926 20.92V21.464H132.198C132.315 23.0853 133.174 23.896 134.774 23.896C135.222 23.896 135.659 23.8267 136.086 23.688C136.523 23.5493 136.934 23.32 137.318 23L137.798 24.12C137.446 24.44 136.992 24.6907 136.438 24.872C135.883 25.0533 135.323 25.144 134.758 25.144ZM134.518 18.184C133.846 18.184 133.312 18.392 132.918 18.808C132.523 19.224 132.283 19.7787 132.198 20.472H136.566C136.534 19.7467 136.342 19.1867 135.99 18.792C135.638 18.3867 135.147 18.184 134.518 18.184Z" fill="#F9F9F9"/>
<defs>
<clipPath id="clip0_1055_4457">
<rect width="24" height="24" fill="white" transform="translate(8 8)"/>
</clipPath>
</defs>
</svg>
