<svg width="32" height="32" viewBox="0 0 32 32" fill="none" xmlns="http://www.w3.org/2000/svg">
<g filter="url(#filter0_d_370_1446)">
<path fill-rule="evenodd" clip-rule="evenodd" d="M23.061 7.93899C23.2953 7.70467 23.2963 7.32353 23.0506 7.10121C21.4447 5.64837 19.4723 4.65451 17.3411 4.23058C15.0133 3.76756 12.6005 4.0052 10.4078 4.91345C8.21508 5.8217 6.34094 7.35977 5.02236 9.33316C3.70379 11.3066 3 13.6266 3 16C3 18.3734 3.70379 20.6935 5.02237 22.6668C6.34094 24.6402 8.21509 26.1783 10.4078 27.0866C12.6005 27.9948 15.0133 28.2325 17.3411 27.7694C19.4723 27.3455 21.4447 26.3516 23.0506 24.8988C23.2963 24.6765 23.2953 24.2953 23.061 24.061C22.8267 23.8267 22.4479 23.8281 22.2009 24.049C20.7638 25.3348 19.0054 26.2149 17.107 26.5925C15.012 27.0092 12.8405 26.7953 10.867 25.9779C8.89358 25.1605 7.20685 23.7762 6.02013 22.0002C4.83341 20.2241 4.2 18.136 4.2 16C4.2 13.864 4.83341 11.7759 6.02013 9.99985C7.20685 8.2238 8.89358 6.83953 10.867 6.02211C12.8405 5.20468 15.012 4.9908 17.107 5.40752C19.0054 5.78515 20.7638 6.66523 22.2009 7.95098C22.4479 8.17192 22.8267 8.1733 23.061 7.93899ZM13.8835 14.225C11.7767 14.1213 10.3123 14.8881 9.49027 16.5254C8.25717 18.9813 9.27628 23 13.39 23C17.5038 23 17.6228 18.942 17.6228 18.5169V13.7629C18.5027 14.3318 19.2446 14.6743 19.8484 14.7903C20.4522 14.9063 20.8361 14.9577 21 14.9446V12.5795C20.4415 12.5108 19.9585 12.3797 19.5511 12.1865C18.9399 11.8966 17.7279 11.0919 17.7279 9.91262C17.7287 9.91839 17.7287 9.61418 17.7279 9.00001H15.1813C15.1737 14.7763 15.1737 17.9486 15.1813 18.5169C15.1927 19.3693 14.5449 20.5618 13.2314 20.5618C11.918 20.5618 11.2702 19.3703 11.2702 18.6018C11.2702 18.1313 11.4285 17.4494 12.0829 16.9444C12.471 16.6449 13.0096 16.5254 13.8835 16.5254V14.225ZM28.4142 14.4142C27.6332 13.6331 26.3668 13.6331 25.5858 14.4142C24.8047 15.1952 24.8047 16.4615 25.5858 17.2426C26.3668 18.0236 27.6332 18.0236 28.4142 17.2426C29.1953 16.4615 29.1953 15.1952 28.4142 14.4142Z" fill="url(#paint0_linear_370_1446)"/>
</g>
<defs>
<filter id="filter0_d_370_1446" x="0" y="2" width="32" height="30" filterUnits="userSpaceOnUse" color-interpolation-filters="sRGB">
<feFlood flood-opacity="0" result="BackgroundImageFix"/>
<feColorMatrix in="SourceAlpha" type="matrix" values="0 0 0 0 0 0 0 0 0 0 0 0 0 0 0 0 0 0 127 0" result="hardAlpha"/>
<feOffset dy="1"/>
<feGaussianBlur stdDeviation="1.5"/>
<feComposite in2="hardAlpha" operator="out"/>
<feColorMatrix type="matrix" values="0 0 0 0 0 0 0 0 0 0 0 0 0 0 0 0 0 0 0.35 0"/>
<feBlend mode="normal" in2="BackgroundImageFix" result="effect1_dropShadow_370_1446"/>
<feBlend mode="normal" in="SourceGraphic" in2="effect1_dropShadow_370_1446" result="shape"/>
</filter>
<linearGradient id="paint0_linear_370_1446" x1="29" y1="15.9999" x2="3" y2="15.9999" gradientUnits="userSpaceOnUse">
<stop stop-color="white"/>
<stop offset="1" stop-color="#F7ECB2"/>
</linearGradient>
</defs>
</svg>
