<svg width="32" height="32" viewBox="0 0 32 32" fill="none" xmlns="http://www.w3.org/2000/svg">
<g filter="url(#filter0_d_370_1462)">
<path fill-rule="evenodd" clip-rule="evenodd" d="M23.061 7.93899C23.2953 7.70467 23.2963 7.32353 23.0506 7.10121C21.4447 5.64837 19.4723 4.65451 17.3411 4.23058C15.0133 3.76756 12.6005 4.0052 10.4078 4.91345C8.21508 5.8217 6.34094 7.35977 5.02236 9.33316C3.70379 11.3066 3 13.6266 3 16C3 18.3734 3.70379 20.6935 5.02237 22.6668C6.34094 24.6402 8.21509 26.1783 10.4078 27.0866C12.6005 27.9948 15.0133 28.2325 17.3411 27.7694C19.4723 27.3455 21.4447 26.3516 23.0506 24.8988C23.2963 24.6765 23.2953 24.2953 23.061 24.061C22.8267 23.8267 22.4479 23.8281 22.2009 24.049C20.7638 25.3348 19.0054 26.2149 17.107 26.5925C15.012 27.0092 12.8405 26.7953 10.867 25.9779C8.89358 25.1605 7.20685 23.7762 6.02013 22.0002C4.83341 20.2241 4.2 18.136 4.2 16C4.2 13.864 4.83341 11.7759 6.02013 9.99985C7.20685 8.2238 8.89358 6.83953 10.867 6.02211C12.8405 5.20468 15.012 4.9908 17.107 5.40752C19.0054 5.78515 20.7638 6.66523 22.2009 7.95098C22.4479 8.17192 22.8267 8.1733 23.061 7.93899ZM25.5858 14.4142C26.3668 13.6331 27.6332 13.6331 28.4142 14.4142C29.1953 15.1952 29.1953 16.4615 28.4142 17.2426C27.6332 18.0236 26.3668 18.0236 25.5858 17.2426C24.8047 16.4615 24.8047 15.1952 25.5858 14.4142ZM22.9932 11.7773C23.1088 10.621 21.7212 11.0971 21.7212 11.0971C20.6966 11.4703 19.64 11.8496 18.5719 12.233C15.2603 13.4217 11.8389 14.6499 8.92434 15.8585C7.344 16.3687 8.26908 16.8789 8.26908 16.8789L10.7745 17.5591C11.9308 17.8652 12.5475 17.5251 12.5475 17.5251L17.9438 14.2941C19.871 13.1377 19.4085 14.09 18.946 14.4982L14.8988 17.8992C14.282 18.3753 14.5904 18.7834 14.8602 18.9875C15.6249 19.5812 17.506 20.6675 18.3272 21.1418C18.5409 21.2652 18.6829 21.3472 18.7147 21.3682C18.9074 21.5043 19.9481 22.1164 20.6419 21.9804C21.3358 21.8444 21.4128 21.0621 21.4128 21.0621L22.3379 15.7225C22.4767 14.7955 22.6358 13.9045 22.7629 13.1929C22.883 12.5207 22.9744 12.0086 22.9932 11.7773Z" fill="url(#paint0_linear_370_1462)"/>
</g>
<defs>
<filter id="filter0_d_370_1462" x="0" y="2" width="32" height="30" filterUnits="userSpaceOnUse" color-interpolation-filters="sRGB">
<feFlood flood-opacity="0" result="BackgroundImageFix"/>
<feColorMatrix in="SourceAlpha" type="matrix" values="0 0 0 0 0 0 0 0 0 0 0 0 0 0 0 0 0 0 127 0" result="hardAlpha"/>
<feOffset dy="1"/>
<feGaussianBlur stdDeviation="1.5"/>
<feComposite in2="hardAlpha" operator="out"/>
<feColorMatrix type="matrix" values="0 0 0 0 0 0 0 0 0 0 0 0 0 0 0 0 0 0 0.35 0"/>
<feBlend mode="normal" in2="BackgroundImageFix" result="effect1_dropShadow_370_1462"/>
<feBlend mode="normal" in="SourceGraphic" in2="effect1_dropShadow_370_1462" result="shape"/>
</filter>
<linearGradient id="paint0_linear_370_1462" x1="29" y1="15.9999" x2="3" y2="15.9999" gradientUnits="userSpaceOnUse">
<stop stop-color="white"/>
<stop offset="1" stop-color="#F7ECB2"/>
</linearGradient>
</defs>
</svg>
