<svg width="32" height="32" viewBox="0 0 32 32" fill="none" xmlns="http://www.w3.org/2000/svg">
<g filter="url(#filter0_d_370_1453)">
<path fill-rule="evenodd" clip-rule="evenodd" d="M23.061 7.93899C23.2953 7.70467 23.2963 7.32353 23.0506 7.10121C21.4447 5.64837 19.4723 4.65451 17.3411 4.23058C15.0133 3.76756 12.6005 4.0052 10.4078 4.91345C8.21508 5.8217 6.34094 7.35977 5.02236 9.33316C3.70379 11.3066 3 13.6266 3 16C3 18.3734 3.70379 20.6935 5.02237 22.6668C6.34094 24.6402 8.21509 26.1783 10.4078 27.0866C12.6005 27.9948 15.0133 28.2325 17.3411 27.7694C19.4723 27.3455 21.4447 26.3516 23.0506 24.8988C23.2963 24.6765 23.2953 24.2953 23.061 24.061C22.8267 23.8267 22.4479 23.8281 22.2009 24.049C20.7638 25.3348 19.0054 26.2149 17.107 26.5925C15.012 27.0092 12.8405 26.7953 10.867 25.9779C8.89358 25.1605 7.20685 23.7762 6.02013 22.0002C4.83341 20.2241 4.2 18.136 4.2 16C4.2 13.864 4.83341 11.7759 6.02013 9.99985C7.20685 8.2238 8.89358 6.83953 10.867 6.02211C12.8405 5.20468 15.012 4.9908 17.107 5.40752C19.0054 5.78515 20.7638 6.66523 22.2009 7.95098C22.4479 8.17192 22.8267 8.1733 23.061 7.93899ZM25.5858 14.4142C26.3668 13.6331 27.6332 13.6331 28.4142 14.4142C29.1953 15.1952 29.1953 16.4615 28.4142 17.2426C27.6332 18.0236 26.3668 18.0236 25.5858 17.2426C24.8047 16.4615 24.8047 15.1952 25.5858 14.4142ZM10.3943 11.1628C12.5824 11.0543 14.2843 11 15.5 11C16.7158 11 18.4183 11.0543 20.6075 11.1628C21.7925 11.2216 22.751 12.144 22.8498 13.3207C22.9499 14.5126 23 15.5624 23 16.4701C23 17.3889 22.9487 18.4533 22.8461 19.6634C22.7476 20.8255 21.81 21.7412 20.6407 21.8173C18.769 21.9391 17.0555 22 15.5 22C13.9447 22 12.2318 21.9391 10.3612 21.8174C9.19229 21.7413 8.25486 20.8261 8.15585 19.6645C8.05195 18.4454 8 17.3806 8 16.4701C8 15.5705 8.05071 14.5204 8.15213 13.3196C8.25148 12.1433 9.20975 11.2216 10.3943 11.1628ZM14 14.4078V18.5923C14 18.8175 14.1847 19 14.4125 19C14.4934 19 14.5725 18.9765 14.6399 18.9325L17.8149 16.8582C18.005 16.734 18.0572 16.4811 17.9316 16.2932C17.9016 16.2483 17.8628 16.2097 17.8176 16.1797L14.6426 14.0694C14.4536 13.9438 14.1973 13.9934 14.0702 14.1803C14.0244 14.2475 14 14.3267 14 14.4078Z" fill="url(#paint0_linear_370_1453)"/>
</g>
<defs>
<filter id="filter0_d_370_1453" x="0" y="2" width="32" height="30" filterUnits="userSpaceOnUse" color-interpolation-filters="sRGB">
<feFlood flood-opacity="0" result="BackgroundImageFix"/>
<feColorMatrix in="SourceAlpha" type="matrix" values="0 0 0 0 0 0 0 0 0 0 0 0 0 0 0 0 0 0 127 0" result="hardAlpha"/>
<feOffset dy="1"/>
<feGaussianBlur stdDeviation="1.5"/>
<feComposite in2="hardAlpha" operator="out"/>
<feColorMatrix type="matrix" values="0 0 0 0 0 0 0 0 0 0 0 0 0 0 0 0 0 0 0.35 0"/>
<feBlend mode="normal" in2="BackgroundImageFix" result="effect1_dropShadow_370_1453"/>
<feBlend mode="normal" in="SourceGraphic" in2="effect1_dropShadow_370_1453" result="shape"/>
</filter>
<linearGradient id="paint0_linear_370_1453" x1="29" y1="15.9999" x2="3" y2="15.9999" gradientUnits="userSpaceOnUse">
<stop stop-color="white"/>
<stop offset="1" stop-color="#F7ECB2"/>
</linearGradient>
</defs>
</svg>
